<svg width="81" height="82" viewBox="0 0 81 82" fill="none" xmlns="http://www.w3.org/2000/svg">
<g filter="url(#filter0_d_1302_52)">
<circle cx="29.5" cy="27.5" r="22.5" fill="black" fill-opacity="0.1"/>
<mask id="path-2-outside-1_1302_52" maskUnits="userSpaceOnUse" x="2" y="0" width="77" height="78" fill="black">
<rect fill="white" x="2" width="77" height="78"/>
<path fill-rule="evenodd" clip-rule="evenodd" d="M43.2554 50.1549C39.2456 52.5947 34.5369 54 29.5 54C14.8645 54 3 42.1355 3 27.5C3 12.8645 14.8645 1 29.5 1C44.1355 1 56 12.8645 56 27.5C56 32.7521 54.4721 37.6473 51.8365 41.7654L53.0208 42.9497L72.9128 62.8417L76.1759 66.1048C78.1285 68.0574 78.1285 71.2232 76.1759 73.1759L74.7617 74.5901C72.8091 76.5427 69.6432 76.5427 67.6906 74.5901L64.4276 71.327L44.5355 51.435L43.2554 50.1549ZM52 27.5C52 39.9264 41.9264 50 29.5 50C17.0736 50 7 39.9264 7 27.5C7 15.0736 17.0736 5 29.5 5C41.9264 5 52 15.0736 52 27.5Z"/>
</mask>
<path fill-rule="evenodd" clip-rule="evenodd" d="M43.2554 50.1549C39.2456 52.5947 34.5369 54 29.5 54C14.8645 54 3 42.1355 3 27.5C3 12.8645 14.8645 1 29.5 1C44.1355 1 56 12.8645 56 27.5C56 32.7521 54.4721 37.6473 51.8365 41.7654L53.0208 42.9497L72.9128 62.8417L76.1759 66.1048C78.1285 68.0574 78.1285 71.2232 76.1759 73.1759L74.7617 74.5901C72.8091 76.5427 69.6432 76.5427 67.6906 74.5901L64.4276 71.327L44.5355 51.435L43.2554 50.1549ZM52 27.5C52 39.9264 41.9264 50 29.5 50C17.0736 50 7 39.9264 7 27.5C7 15.0736 17.0736 5 29.5 5C41.9264 5 52 15.0736 52 27.5Z" fill="black"/>
<path d="M43.2554 50.1549L43.9625 49.4478L43.4069 48.8921L42.7356 49.3006L43.2554 50.1549ZM51.8365 41.7654L50.9943 41.2264L50.5607 41.9038L51.1294 42.4726L51.8365 41.7654ZM53.0208 42.9497L52.3137 43.6568L53.0208 42.9497ZM72.9128 62.8417L73.6199 62.1346L72.9128 62.8417ZM76.1759 66.1048L75.4688 66.8119L76.1759 66.1048ZM76.1759 73.1759L76.883 73.883L76.1759 73.1759ZM74.7617 74.5901L74.0546 73.883L74.7617 74.5901ZM67.6906 74.5901L68.3977 73.883L67.6906 74.5901ZM64.4276 71.327L63.7205 72.0341L64.4276 71.327ZM29.5 55C34.7254 55 39.6132 53.5416 43.7752 51.0092L42.7356 49.3006C38.878 51.6478 34.3484 53 29.5 53V55ZM2 27.5C2 42.6878 14.3122 55 29.5 55V53C15.4167 53 4 41.5833 4 27.5H2ZM29.5 0C14.3122 0 2 12.3122 2 27.5H4C4 13.4167 15.4167 2 29.5 2V0ZM57 27.5C57 12.3122 44.6878 0 29.5 0V2C43.5833 2 55 13.4167 55 27.5H57ZM52.6788 42.3045C55.4143 38.0302 57 32.9488 57 27.5H55C55 32.5554 53.5299 37.2644 50.9943 41.2264L52.6788 42.3045ZM53.7279 42.2426L52.5437 41.0583L51.1294 42.4726L52.3137 43.6568L53.7279 42.2426ZM73.6199 62.1346L53.7279 42.2426L52.3137 43.6568L72.2057 63.5489L73.6199 62.1346ZM76.883 65.3977L73.6199 62.1346L72.2057 63.5489L75.4688 66.8119L76.883 65.3977ZM76.883 73.883C79.2261 71.5398 79.2261 67.7408 76.883 65.3977L75.4688 66.8119C77.0309 68.374 77.0309 70.9067 75.4688 72.4688L76.883 73.883ZM75.4688 75.2972L76.883 73.883L75.4688 72.4688L74.0546 73.883L75.4688 75.2972ZM66.9835 75.2972C69.3267 77.6403 73.1256 77.6403 75.4688 75.2972L74.0546 73.883C72.4925 75.4451 69.9598 75.4451 68.3977 73.883L66.9835 75.2972ZM63.7205 72.0341L66.9835 75.2972L68.3977 73.883L65.1347 70.6199L63.7205 72.0341ZM43.8284 52.1421L63.7205 72.0341L65.1347 70.6199L45.2426 50.7279L43.8284 52.1421ZM42.5483 50.862L43.8284 52.1421L45.2426 50.7279L43.9625 49.4478L42.5483 50.862ZM29.5 51C42.4787 51 53 40.4787 53 27.5H51C51 39.3741 41.3741 49 29.5 49V51ZM6 27.5C6 40.4787 16.5213 51 29.5 51V49C17.6259 49 8 39.3741 8 27.5H6ZM29.5 4C16.5213 4 6 14.5213 6 27.5H8C8 15.6259 17.6259 6 29.5 6V4ZM53 27.5C53 14.5213 42.4787 4 29.5 4V6C41.3741 6 51 15.6259 51 27.5H53Z" fill="white" mask="url(#path-2-outside-1_1302_52)"/>
</g>
<defs>
<filter id="filter0_d_1302_52" x="0" y="0" width="80.6404" height="81.0546" filterUnits="userSpaceOnUse" color-interpolation-filters="sRGB">
<feFlood flood-opacity="0" result="BackgroundImageFix"/>
<feColorMatrix in="SourceAlpha" type="matrix" values="0 0 0 0 0 0 0 0 0 0 0 0 0 0 0 0 0 0 127 0" result="hardAlpha"/>
<feOffset dy="2"/>
<feGaussianBlur stdDeviation="1"/>
<feComposite in2="hardAlpha" operator="out"/>
<feColorMatrix type="matrix" values="0 0 0 0 0 0 0 0 0 0 0 0 0 0 0 0 0 0 0.25 0"/>
<feBlend mode="normal" in2="BackgroundImageFix" result="effect1_dropShadow_1302_52"/>
<feBlend mode="normal" in="SourceGraphic" in2="effect1_dropShadow_1302_52" result="shape"/>
</filter>
</defs>
</svg>
