<svg width="35" height="36" viewBox="0 0 35 36" fill="none" xmlns="http://www.w3.org/2000/svg">
<g filter="url(#filter0_d_1681_2)">
<circle cx="13.3131" cy="11.3131" r="8.75638" fill="black" fill-opacity="0.1"/>
<mask id="path-2-outside-1_1681_2" maskUnits="userSpaceOnUse" x="2" y="0" width="31" height="32" fill="black">
<rect fill="white" x="2" width="31" height="32"/>
<path fill-rule="evenodd" clip-rule="evenodd" d="M18.6663 20.1297C17.1058 21.0792 15.2733 21.6261 13.3131 21.6261C7.61732 21.6261 3 17.0088 3 11.3131C3 5.61732 7.61732 1 13.3131 1C19.0088 1 23.6261 5.61732 23.6261 11.3131C23.6261 13.357 23.0315 15.2621 22.0058 16.8648L22.7419 17.6009L30.2081 25.0671L31.2028 26.0618C32.1147 26.9737 32.1147 28.4521 31.2028 29.364C30.291 30.2759 28.8125 30.2759 27.9006 29.364L26.9059 28.3693L19.4397 20.9031L19.4395 20.9029L18.6663 20.1297ZM22.0694 11.3131C22.0694 16.1491 18.1491 20.0694 13.3131 20.0694C8.47705 20.0694 4.55669 16.1491 4.55669 11.3131C4.55669 6.47705 8.47705 2.55669 13.3131 2.55669C18.1491 2.55669 22.0694 6.47705 22.0694 11.3131Z"/>
</mask>
<path fill-rule="evenodd" clip-rule="evenodd" d="M18.6663 20.1297C17.1058 21.0792 15.2733 21.6261 13.3131 21.6261C7.61732 21.6261 3 17.0088 3 11.3131C3 5.61732 7.61732 1 13.3131 1C19.0088 1 23.6261 5.61732 23.6261 11.3131C23.6261 13.357 23.0315 15.2621 22.0058 16.8648L22.7419 17.6009L30.2081 25.0671L31.2028 26.0618C32.1147 26.9737 32.1147 28.4521 31.2028 29.364C30.291 30.2759 28.8125 30.2759 27.9006 29.364L26.9059 28.3693L19.4397 20.9031L19.4395 20.9029L18.6663 20.1297ZM22.0694 11.3131C22.0694 16.1491 18.1491 20.0694 13.3131 20.0694C8.47705 20.0694 4.55669 16.1491 4.55669 11.3131C4.55669 6.47705 8.47705 2.55669 13.3131 2.55669C18.1491 2.55669 22.0694 6.47705 22.0694 11.3131Z" fill="black"/>
<path d="M18.6663 20.1297L19.3734 19.4226L18.8178 18.867L18.1465 19.2754L18.6663 20.1297ZM22.0058 16.8648L21.1636 16.3257L20.73 17.0032L21.2987 17.5719L22.0058 16.8648ZM22.7419 17.6009L22.0348 18.308L22.0348 18.308L22.7419 17.6009ZM31.2028 26.0618L30.4957 26.7689L30.4957 26.7689L31.2028 26.0618ZM31.2028 29.364L31.9099 30.0711L31.91 30.0711L31.2028 29.364ZM27.9006 29.364L28.6077 28.6569L28.6077 28.6569L27.9006 29.364ZM19.4395 20.9029L20.1466 20.1958L20.1466 20.1958L19.4395 20.9029ZM13.3131 22.6261C15.4618 22.6261 17.4734 22.0261 19.1861 20.984L18.1465 19.2754C16.7382 20.1324 15.0848 20.6261 13.3131 20.6261V22.6261ZM2 11.3131C2 17.5611 7.06503 22.6261 13.3131 22.6261V20.6261C8.1696 20.6261 4 16.4565 4 11.3131H2ZM13.3131 0C7.06503 0 2 5.06503 2 11.3131H4C4 6.1696 8.1696 2 13.3131 2V0ZM24.6261 11.3131C24.6261 5.06503 19.5611 0 13.3131 0V2C18.4565 2 22.6261 6.1696 22.6261 11.3131H24.6261ZM22.8481 17.4038C23.9737 15.645 24.6261 13.5537 24.6261 11.3131H22.6261C22.6261 13.1603 22.0893 14.8792 21.1636 16.3257L22.8481 17.4038ZM23.449 16.8937L22.7129 16.1577L21.2987 17.5719L22.0348 18.308L23.449 16.8937ZM30.9152 24.36L23.449 16.8937L22.0348 18.308L29.501 25.7742L30.9152 24.36ZM31.9099 25.3547L30.9152 24.36L29.501 25.7742L30.4957 26.7689L31.9099 25.3547ZM31.91 30.0711C33.2124 28.7687 33.2124 26.6571 31.9099 25.3547L30.4957 26.7689C31.0171 27.2903 31.0171 28.1356 30.4957 28.6569L31.91 30.0711ZM27.1935 30.0711C28.4959 31.3736 30.6075 31.3735 31.9099 30.0711L30.4957 28.6569C29.9744 29.1783 29.1291 29.1783 28.6077 28.6569L27.1935 30.0711ZM26.1988 29.0764L27.1935 30.0711L28.6077 28.6569L27.613 27.6622L26.1988 29.0764ZM18.7326 21.6102L26.1988 29.0764L27.613 27.6622L20.1468 20.196L18.7326 21.6102ZM18.7324 21.61L18.7326 21.6102L20.1468 20.196L20.1466 20.1958L18.7324 21.61ZM17.9592 20.8368L18.7324 21.61L20.1466 20.1958L19.3734 19.4226L17.9592 20.8368ZM13.3131 21.0694C18.7014 21.0694 23.0694 16.7014 23.0694 11.3131H21.0694C21.0694 15.5968 17.5968 19.0694 13.3131 19.0694V21.0694ZM3.55669 11.3131C3.55669 16.7014 7.92477 21.0694 13.3131 21.0694V19.0694C9.02934 19.0694 5.55669 15.5968 5.55669 11.3131H3.55669ZM13.3131 1.55669C7.92477 1.55669 3.55669 5.92477 3.55669 11.3131H5.55669C5.55669 7.02934 9.02934 3.55669 13.3131 3.55669V1.55669ZM23.0694 11.3131C23.0694 5.92477 18.7014 1.55669 13.3131 1.55669V3.55669C17.5968 3.55669 21.0694 7.02934 21.0694 11.3131H23.0694Z" fill="white" mask="url(#path-2-outside-1_1681_2)"/>
</g>
<defs>
<filter id="filter0_d_1681_2" x="0" y="0" width="34.8867" height="35.048" filterUnits="userSpaceOnUse" color-interpolation-filters="sRGB">
<feFlood flood-opacity="0" result="BackgroundImageFix"/>
<feColorMatrix in="SourceAlpha" type="matrix" values="0 0 0 0 0 0 0 0 0 0 0 0 0 0 0 0 0 0 127 0" result="hardAlpha"/>
<feOffset dy="2"/>
<feGaussianBlur stdDeviation="1"/>
<feComposite in2="hardAlpha" operator="out"/>
<feColorMatrix type="matrix" values="0 0 0 0 0 0 0 0 0 0 0 0 0 0 0 0 0 0 0.25 0"/>
<feBlend mode="normal" in2="BackgroundImageFix" result="effect1_dropShadow_1681_2"/>
<feBlend mode="normal" in="SourceGraphic" in2="effect1_dropShadow_1681_2" result="shape"/>
</filter>
</defs>
</svg>
